<?xml version="1.0" ?><svg height="64" viewBox="0 0 64 64" width="64" xmlns="http://www.w3.org/2000/svg"><title/><g><path d="M22.543,16.883S23.666,11,19.5,9.747" fill="none" stroke="#231f20" stroke-linecap="round" stroke-linejoin="round" stroke-width="2"/><g><ellipse cx="25.051" cy="14.113" fill="none" rx="3.673" ry="1.578" stroke="#231f20" stroke-linecap="round" stroke-linejoin="round" stroke-width="2" transform="translate(-0.867 26.562) rotate(-55.052)"/><polygon fill="#82d88c" points="18.866 39.749 10.886 49.643 10.013 45.609 5.652 45.332 13.71 35.03 18.866 39.749"/><polygon fill="#3c9e48" points="16.33 37.428 9.681 45.588 5.652 45.332 13.71 35.03 16.33 37.428"/><polygon fill="none" points="18.866 39.749 10.886 49.643 10.013 45.609 5.652 45.332 13.71 35.03 18.866 39.749" stroke="#231f20" stroke-linecap="round" stroke-linejoin="round" stroke-width="2"/><polygon fill="#82d88c" points="16.885 38.87 18.823 50.619 21.397 47.734 25.079 49.521 23.267 37.404 16.885 38.87"/><polygon fill="#3c9e48" points="20.024 38.149 21.677 47.87 25.079 49.521 23.267 37.404 20.024 38.149"/><polygon fill="none" points="16.885 38.87 18.823 50.619 21.397 47.734 25.079 49.521 23.267 37.404 16.885 38.87" stroke="#231f20" stroke-linecap="round" stroke-linejoin="round" stroke-width="2"/><g><path d="M25.492,28.962h6.741a0,0,0,0,1,0,0V35.7a0,0,0,0,1,0,0H29.492a4,4,0,0,1-4-4V28.962A0,0,0,0,1,25.492,28.962Z" fill="#82d88c" transform="translate(15.394 73.527) rotate(-120.14)"/><rect fill="#82d88c" height="6.741" transform="translate(15.352 61.843) rotate(-120.14)" width="6.741" x="22.108" y="23.132"/><path d="M18.723,17.3h6.741a0,0,0,0,1,0,0v2.741a4,4,0,0,1-4,4H18.723a0,0,0,0,1,0,0V17.3A0,0,0,0,1,18.723,17.3Z" fill="#82d88c" transform="translate(15.309 50.159) rotate(-120.14)"/><path d="M29.047,36.122l-1.407.817L24.256,31.11l3.819-2.218,1.984,3.417A2.788,2.788,0,0,1,29.047,36.122Z" fill="#55c467"/><rect fill="#55c467" height="6.741" transform="translate(-10.292 15.95) rotate(-30.14)" width="4.416" x="22.265" y="23.716"/><path d="M22.706,19.645l1.984,3.418L20.871,25.28l-3.385-5.829,1.407-.817A2.789,2.789,0,0,1,22.706,19.645Z" fill="#55c467"/><rect fill="#55c467" height="6.741" transform="translate(3.711 73.57) rotate(-120.14)" width="6.741" x="19.663" y="32.346"/><rect fill="#55c467" height="6.741" transform="translate(3.668 61.886) rotate(-120.14)" width="6.741" x="16.278" y="26.517"/><rect fill="#55c467" height="6.741" transform="translate(3.625 50.202) rotate(-120.14)" width="6.741" x="12.893" y="20.687"/><path d="M25.492,28.962h6.741a0,0,0,0,1,0,0V35.7a0,0,0,0,1,0,0H29.492a4,4,0,0,1-4-4V28.962A0,0,0,0,1,25.492,28.962Z" fill="none" stroke="#231f20" stroke-linecap="round" stroke-linejoin="round" stroke-width="2" transform="translate(15.394 73.527) rotate(-120.14)"/><rect fill="none" height="6.741" stroke="#231f20" stroke-linecap="round" stroke-linejoin="round" stroke-width="2" transform="translate(15.352 61.843) rotate(-120.14)" width="6.741" x="22.108" y="23.132"/><path d="M18.723,17.3h6.741a0,0,0,0,1,0,0v2.741a4,4,0,0,1-4,4H18.723a0,0,0,0,1,0,0V17.3A0,0,0,0,1,18.723,17.3Z" fill="none" stroke="#231f20" stroke-linecap="round" stroke-linejoin="round" stroke-width="2" transform="translate(15.309 50.159) rotate(-120.14)"/><path d="M7.064,24.072H13.8a0,0,0,0,1,0,0v6.741a0,0,0,0,1,0,0H11.064a4,4,0,0,1-4-4V24.072a0,0,0,0,1,0,0Z" fill="#3c9e48" transform="translate(28.927 4.64) rotate(59.86)"/><rect fill="#3c9e48" height="6.741" transform="matrix(0.502, 0.865, -0.865, 0.502, 35.654, 4.615)" width="6.741" x="10.448" y="29.901"/><path d="M13.833,35.731h6.741a0,0,0,0,1,0,0v2.741a4,4,0,0,1-4,4H13.833a0,0,0,0,1,0,0V35.731a0,0,0,0,1,0,0Z" fill="#3c9e48" transform="translate(42.38 4.59) rotate(59.86)"/><path d="M10.249,23.652l1.408-.817,3.384,5.83-3.819,2.217L9.238,27.465A2.789,2.789,0,0,1,10.249,23.652Z" fill="#55c467"/><rect fill="#55c467" height="6.741" transform="translate(-14.409 11.863) rotate(-30.14)" width="4.416" x="12.616" y="29.318"/><path d="M16.591,40.129l-1.984-3.417,3.819-2.218,3.385,5.83-1.407.817A2.789,2.789,0,0,1,16.591,40.129Z" fill="#55c467"/><path d="M7.064,24.072H13.8a0,0,0,0,1,0,0v6.741a0,0,0,0,1,0,0H11.064a4,4,0,0,1-4-4V24.072a0,0,0,0,1,0,0Z" fill="none" stroke="#231f20" stroke-linecap="round" stroke-linejoin="round" stroke-width="2" transform="translate(28.927 4.64) rotate(59.86)"/><rect fill="none" height="6.741" stroke="#231f20" stroke-linecap="round" stroke-linejoin="round" stroke-width="2" transform="matrix(0.502, 0.865, -0.865, 0.502, 35.654, 4.615)" width="6.741" x="10.448" y="29.901"/><path d="M13.833,35.731h6.741a0,0,0,0,1,0,0v2.741a4,4,0,0,1-4,4H13.833a0,0,0,0,1,0,0V35.731a0,0,0,0,1,0,0Z" fill="none" stroke="#231f20" stroke-linecap="round" stroke-linejoin="round" stroke-width="2" transform="translate(42.38 4.59) rotate(59.86)"/><rect fill="none" height="6.741" stroke="#231f20" stroke-linecap="round" stroke-linejoin="round" stroke-width="2" transform="translate(3.711 73.57) rotate(-120.14)" width="6.741" x="19.663" y="32.346"/><rect fill="none" height="6.741" stroke="#231f20" stroke-linecap="round" stroke-linejoin="round" stroke-width="2" transform="translate(3.668 61.886) rotate(-120.14)" width="6.741" x="16.278" y="26.517"/><rect fill="none" height="6.741" stroke="#231f20" stroke-linecap="round" stroke-linejoin="round" stroke-width="2" transform="translate(3.625 50.202) rotate(-120.14)" width="6.741" x="12.893" y="20.687"/></g></g><g><g><ellipse cx="39.937" cy="12.134" fill="none" rx="1.848" ry="4.302" stroke="#231f20" stroke-linecap="round" stroke-linejoin="round" stroke-width="2" transform="translate(-1.277 18.741) rotate(-26.009)"/><polygon fill="#82d88c" points="42.427 42.918 49.858 55.816 51.603 51.308 56.698 51.782 49.251 38.397 42.427 42.918"/><polygon fill="#3c9e48" points="45.784 40.694 51.991 51.344 56.698 51.782 49.251 38.397 45.784 40.694"/><polygon fill="none" points="42.427 42.918 49.858 55.816 51.603 51.308 56.698 51.782 49.251 38.397 42.427 42.918" stroke="#231f20" stroke-linecap="round" stroke-linejoin="round" stroke-width="2"/><polygon fill="#82d88c" points="44.879 42.262 40.499 55.502 38.046 51.695 33.46 53.093 37.762 39.404 44.879 42.262"/><polygon fill="#3c9e48" points="41.378 40.856 37.697 51.802 33.46 53.093 37.762 39.404 41.378 40.856"/><polygon fill="none" points="44.879 42.262 40.499 55.502 38.046 51.695 33.46 53.093 37.762 39.404 44.879 42.262" stroke="#231f20" stroke-linecap="round" stroke-linejoin="round" stroke-width="2"/><g><path d="M32.264,28.571h3.894a0,0,0,0,1,0,0v7.894a0,0,0,0,1,0,0H28.264a0,0,0,0,1,0,0V32.571a4,4,0,0,1,4-4Z" fill="#82d88c" transform="translate(-13.337 37.024) rotate(-50.92)"/><rect fill="#82d88c" height="7.894" transform="translate(-6.741 38.622) rotate(-50.92)" width="7.894" x="33.241" y="22.442"/><path d="M38.218,16.314h3.894a4,4,0,0,1,4,4v3.894a0,0,0,0,1,0,0H38.218a0,0,0,0,1,0,0V16.314A0,0,0,0,1,38.218,16.314Z" fill="#82d88c" transform="translate(-0.144 40.22) rotate(-50.92)"/><path d="M31.308,36.869l1.48,1.2,4.976-6.128-4.015-3.26-2.917,3.592A3.266,3.266,0,0,0,31.308,36.869Z" fill="#55c467"/><rect fill="#55c467" height="5.172" transform="translate(-7.016 39.759) rotate(-50.92)" width="7.894" x="34.298" y="24.662"/><path d="M41.643,18.961l-2.917,3.592,4.015,3.261,4.977-6.128-1.48-1.2A3.267,3.267,0,0,0,41.643,18.961Z" fill="#55c467"/><rect fill="#55c467" height="7.894" transform="translate(-14.936 43.62) rotate(-50.92)" width="7.894" x="34.393" y="33.547"/><rect fill="#55c467" height="7.894" transform="translate(-8.339 45.219) rotate(-50.92)" width="7.894" x="39.369" y="27.419"/><rect fill="#55c467" height="7.894" transform="translate(-1.742 46.817) rotate(-50.92)" width="7.894" x="44.346" y="21.291"/><path d="M32.264,28.571h3.894a0,0,0,0,1,0,0v7.894a0,0,0,0,1,0,0H28.264a0,0,0,0,1,0,0V32.571a4,4,0,0,1,4-4Z" fill="none" stroke="#231f20" stroke-linecap="round" stroke-linejoin="round" stroke-width="2" transform="translate(-13.337 37.024) rotate(-50.92)"/><rect fill="none" height="7.894" stroke="#231f20" stroke-linecap="round" stroke-linejoin="round" stroke-width="2" transform="translate(-6.741 38.622) rotate(-50.92)" width="7.894" x="33.241" y="22.442"/><path d="M38.218,16.314h3.894a4,4,0,0,1,4,4v3.894a0,0,0,0,1,0,0H38.218a0,0,0,0,1,0,0V16.314A0,0,0,0,1,38.218,16.314Z" fill="none" stroke="#231f20" stroke-linecap="round" stroke-linejoin="round" stroke-width="2" transform="translate(-0.144 40.22) rotate(-50.92)"/><path d="M54.474,26.268h3.894a0,0,0,0,1,0,0v7.894a0,0,0,0,1,0,0H50.474a0,0,0,0,1,0,0V30.268A4,4,0,0,1,54.474,26.268Z" fill="#3c9e48" transform="translate(112.184 7.016) rotate(129.08)"/><rect fill="#3c9e48" height="7.894" transform="translate(108.827 20.871) rotate(129.08)" width="7.894" x="45.498" y="32.396"/><path d="M40.521,38.524h3.894a4,4,0,0,1,4,4v3.894a0,0,0,0,1,0,0H40.521a0,0,0,0,1,0,0V38.524a0,0,0,0,1,0,0Z" fill="#3c9e48" transform="translate(105.47 34.726) rotate(129.08)"/><path d="M55.325,25.864l-1.479-1.2-4.977,6.129,4.015,3.26L55.8,30.459A3.266,3.266,0,0,0,55.325,25.864Z" fill="#55c467"/><rect fill="#55c467" height="5.172" transform="translate(-9.662 50.678) rotate(-50.92)" width="7.894" x="44.441" y="32.899"/><path d="M44.99,43.772l2.918-3.593-4.016-3.26-4.976,6.128,1.479,1.2A3.266,3.266,0,0,0,44.99,43.772Z" fill="#55c467"/><path d="M54.474,26.268h3.894a0,0,0,0,1,0,0v7.894a0,0,0,0,1,0,0H50.474a0,0,0,0,1,0,0V30.268A4,4,0,0,1,54.474,26.268Z" fill="none" stroke="#231f20" stroke-linecap="round" stroke-linejoin="round" stroke-width="2" transform="translate(112.184 7.016) rotate(129.08)"/><rect fill="none" height="7.894" stroke="#231f20" stroke-linecap="round" stroke-linejoin="round" stroke-width="2" transform="translate(108.827 20.871) rotate(129.08)" width="7.894" x="45.498" y="32.396"/><path d="M40.521,38.524h3.894a4,4,0,0,1,4,4v3.894a0,0,0,0,1,0,0H40.521a0,0,0,0,1,0,0V38.524a0,0,0,0,1,0,0Z" fill="none" stroke="#231f20" stroke-linecap="round" stroke-linejoin="round" stroke-width="2" transform="translate(105.47 34.726) rotate(129.08)"/><rect fill="none" height="7.894" stroke="#231f20" stroke-linecap="round" stroke-linejoin="round" stroke-width="2" transform="translate(-14.936 43.62) rotate(-50.92)" width="7.894" x="34.393" y="33.547"/><rect fill="none" height="7.894" stroke="#231f20" stroke-linecap="round" stroke-linejoin="round" stroke-width="2" transform="translate(-8.339 45.219) rotate(-50.92)" width="7.894" x="39.369" y="27.419"/><rect fill="none" height="7.894" stroke="#231f20" stroke-linecap="round" stroke-linejoin="round" stroke-width="2" transform="translate(-1.742 46.817) rotate(-50.92)" width="7.894" x="44.346" y="21.291"/></g></g><path d="M42.476,15.933s-.228-7.014,4.824-7.7" fill="none" stroke="#231f20" stroke-linecap="round" stroke-linejoin="round" stroke-width="2"/></g></g></svg>